<svg width="330" height="288" viewBox="0 0 330 288" fill="none" xmlns="http://www.w3.org/2000/svg">
<path d="M236.242 237.376C232.912 241.638 230.172 244.806 228.4 246.812C215.874 260.932 201.596 273.398 185.915 283.908C169.633 286.41 153.083 286.658 136.733 284.642C120.011 282.958 103.88 281.348 85.1888 272.378C70.1246 265.068 56.7472 254.704 45.9082 241.942L46.1768 238.038C51.1272 234.436 56.9624 232.246 63.06 231.7C76.8458 230.644 87.8564 239.202 90.8284 241.494C101.571 249.784 102.77 258.538 110.63 258.592C114.426 258.592 117.397 256.944 122.769 253.866C134.657 247.08 135.14 241.834 141.478 240.832C145.828 240.134 146.58 242.46 160.724 248.816C177.876 256.532 182.209 255.53 184.357 254.618C188.242 253.006 190.391 249.694 192.843 245.916C198.501 237.232 196.174 232.47 200.756 228.586C206.128 224.11 214.454 225.936 216.62 226.402C225.356 228.388 225.984 233.49 236.242 237.376Z" fill="#FFD8BD"/>
<path d="M262.346 195.338C260.144 199.922 257.87 204.29 255.596 208.3C255.488 206.624 255.746 204.944 256.348 203.376C257.57 200.198 259.646 197.416 262.346 195.338Z" fill="#FFD8BD"/>
<path d="M236.242 237.376C232.912 241.638 230.172 244.806 228.4 246.812C215.874 260.932 201.596 273.398 185.915 283.908C169.633 286.41 153.083 286.658 136.733 284.642C120.011 282.958 103.88 281.348 85.1888 272.378C70.1246 265.068 56.7472 254.704 45.9082 241.942L46.1768 238.038C51.1272 234.436 56.9624 232.246 63.06 231.7C76.8458 230.644 87.8564 239.202 90.8284 241.494C101.571 249.784 102.77 258.538 110.63 258.592C114.426 258.592 117.397 256.944 122.769 253.866C134.657 247.08 135.14 241.834 141.478 240.832C145.828 240.134 146.58 242.46 160.724 248.816C177.876 256.532 182.209 255.53 184.357 254.618C188.242 253.006 190.391 249.694 192.843 245.916C198.501 237.232 196.174 232.47 200.756 228.586C206.128 224.11 214.454 225.936 216.62 226.402C225.356 228.388 225.984 233.49 236.242 237.376Z" fill="#FFD8BD"/>
<path d="M262.346 195.338C260.144 199.922 257.87 204.29 255.596 208.3C255.488 206.624 255.746 204.944 256.348 203.376C257.57 200.198 259.646 197.416 262.346 195.338Z" fill="#FFD8BD"/>
<path d="M282.702 96.7966C275.988 67.2556 256.85 49.1012 246.036 38.8424C228.538 22.4324 207.558 10.1913 184.662 3.03516C160.993 3.03516 142.158 8.03028 129.465 11.5394C102.729 18.3283 77.7588 30.7704 56.2388 48.027C43.2228 58.626 25.0146 73.4502 13.3952 100.145C9.81446 108.165 1.04172 129.166 3.81678 155.646C3.97792 157.078 4.22854 158.457 4.22854 158.457C4.59622 160.457 5.13536 162.422 5.8399 164.329C6.21588 165.403 6.64558 166.8 8.2032 175.895C9.51016 183.54 10.4054 189.412 10.4591 189.842C11.7123 198.185 16.5284 217.878 31.5138 233.276C34.6064 236.45 38 239.316 41.6472 241.834C43.0834 240.492 44.6086 239.248 46.2126 238.11C51.163 234.508 56.9982 232.318 63.0958 231.772C76.8816 230.716 87.8924 239.274 90.8644 241.566C101.607 249.854 102.806 258.61 110.666 258.664C114.461 258.664 117.433 257.016 122.804 253.936C134.693 247.152 135.176 241.906 141.514 240.904C145.864 240.204 146.616 242.532 160.76 248.888C177.912 256.604 182.245 255.602 184.393 254.688C188.278 253.078 190.426 249.766 192.879 245.988C198.537 237.304 196.209 232.542 200.792 228.656C206.164 224.182 214.49 226.008 216.656 226.472C225.356 228.37 225.984 233.508 236.242 237.358C243.424 228.18 249.896 218.466 255.596 208.3C255.488 206.624 255.746 204.944 256.348 203.378C257.57 200.198 259.646 197.416 262.346 195.338C266.114 187.536 269.438 179.526 272.3 171.347C281.126 146.139 288.86 124.028 282.702 96.7966ZM212.878 126.552C208.778 136.238 200.452 146.121 185.897 154.948C164.09 168.161 138.918 170.792 120.334 164.813C114.882 163.136 109.793 160.452 105.331 156.899C103.932 155.771 102.627 154.532 101.428 153.193C89.3068 139.747 86.854 113.375 118.884 91.8552C152.417 69.3324 203.496 72.9668 212.448 93.0368C214.832 98.3642 216.112 104.12 216.208 109.956C216.254 115.664 215.1 121.318 212.824 126.552H212.878Z" fill="#FF46B5" stroke="#FF46B5" stroke-width="2" stroke-miterlimit="10"/>
<path d="M212.824 126.552C208.724 136.238 200.398 146.121 185.843 154.948C164.037 168.161 138.864 170.792 120.28 164.813C124.985 155.468 131.772 147.328 140.117 141.019C149.069 134.376 157.072 131.87 166.973 128.808C177.339 125.586 190.248 121.754 205.842 124.762C208.204 125.217 210.534 125.815 212.824 126.552Z" fill="white"/>
<path d="M216.208 109.956C212.972 106.314 209.168 103.219 204.946 100.789C194.795 94.9526 185.252 94.845 175.602 94.7376C164.938 94.6248 154.341 96.4446 144.325 100.109C135.373 103.403 123.61 107.736 114.354 119.355C108.983 125.584 105.504 133.219 104.328 141.359C103.66 146.549 104 151.82 105.33 156.881C103.932 155.753 102.626 154.514 101.428 153.175C89.3068 139.73 86.854 113.357 118.884 91.8372C152.417 69.3144 203.496 72.949 212.448 93.019C214.836 98.3518 216.114 104.114 216.208 109.956Z" fill="#F817AA" stroke="#F817AA" stroke-width="2" stroke-miterlimit="10"/>
<path d="M212.824 126.552C210.512 125.812 208.156 125.214 205.77 124.762C190.122 121.754 177.267 125.586 166.901 128.808C157.072 131.87 148.998 134.376 140.046 141.019C131.7 147.328 124.913 155.468 120.209 164.813C114.757 163.136 109.667 160.452 105.205 156.899C103.875 151.838 103.534 146.567 104.203 141.377C105.379 133.236 108.858 125.602 114.229 119.373C123.485 107.754 135.23 103.421 144.199 100.127C154.216 96.4624 164.812 94.6428 175.477 94.7556C185.056 94.863 194.67 94.9704 204.822 100.807C209.086 103.22 212.932 106.31 216.208 109.956C216.254 115.664 215.1 121.318 212.824 126.552Z" fill="#FFD8BD"/>
<path d="M321.034 143.597C316.88 147.052 312.404 145.262 304.454 151.474C301.072 154.124 295.234 158.636 293.802 165.797C292.244 173.478 297.382 176.414 294.966 183.038C294.07 185.248 292.718 187.244 291 188.897C289.282 190.55 287.236 191.824 284.994 192.635C277.618 195.32 274.018 190.236 266.84 192.814C265.218 193.398 263.7 194.238 262.346 195.302C266.114 187.5 269.438 179.49 272.3 171.312C281.126 146.103 288.86 123.992 282.702 96.7608C275.988 67.2198 256.85 49.0654 246.036 38.8066C228.538 22.3964 207.558 10.1554 184.662 2.99931C192.988 3.02191 201.3 3.66825 209.53 4.93291C226.914 7.61847 256.92 12.2555 282.684 36.2822C298.046 50.6052 305.01 65.4472 311.33 79.0898C313.066 82.7242 335.536 131.44 321.034 143.597Z" fill="#F817AA" stroke="#F817AA" stroke-width="2" stroke-miterlimit="10"/>
<path d="M309.79 193.745C301.394 211.774 290.598 223.412 282.326 232.202C271.646 243.598 259.488 253.516 246.178 261.69C228.99 272.126 210.072 279.402 190.319 283.174C188.833 283.442 187.383 283.71 185.951 283.944C201.632 273.434 215.91 260.968 228.436 246.848C230.226 244.842 232.948 241.672 236.278 237.412C240.128 238.844 249.008 242.156 253.896 238.146C257.136 235.478 257.244 230.662 257.368 223.966C257.53 215.802 255.81 212.024 255.578 208.318C255.47 206.642 255.728 204.962 256.33 203.394C257.554 200.216 259.628 197.434 262.328 195.356C263.682 194.292 265.2 193.451 266.822 192.868C273.984 190.289 277.564 195.374 284.976 192.689C287.218 191.877 289.264 190.604 290.982 188.951C292.7 187.297 294.052 185.301 294.948 183.092C297.312 176.468 292.226 173.532 293.784 165.851C295.216 158.69 301.054 154.142 304.438 151.528C312.386 145.315 316.862 147.106 321.016 143.65C324.56 161.876 314.266 184.095 309.79 193.745Z" fill="#FECCAA"/>
<path d="M253.894 238.128C249.008 242.138 240.128 238.826 236.278 237.394C243.45 228.204 249.908 218.476 255.596 208.3C255.81 212.006 257.53 215.784 257.386 223.948C257.242 230.644 257.136 235.46 253.894 238.128Z" fill="#F817AA" stroke="#F817AA" stroke-width="2" stroke-miterlimit="10"/>
<path d="M324.596 138.494C323.944 140.169 322.992 141.71 321.786 143.042C321.246 143.597 320.646 144.089 319.996 144.51C317.614 146.103 316.414 145.477 312.242 147.034C309.434 148.128 306.798 149.624 304.42 151.474C301.976 153.311 299.79 155.466 297.92 157.884C295.884 160.138 294.454 162.874 293.766 165.833C293.542 167.903 293.608 169.994 293.964 172.046C294.804 179.386 295.932 179.368 295.468 181.66C294.822 184.249 293.512 186.626 291.67 188.557C289.828 190.487 287.514 191.905 284.958 192.671C282.458 193.317 279.866 193.529 277.296 193.297C272.408 193.154 272.068 192.134 269.202 192.474C265.83 193.129 262.734 194.793 260.328 197.244C257.92 199.696 256.314 202.822 255.722 206.206C255.328 208.928 256.044 209.41 256.778 214.854C257.286 219.01 257.424 223.204 257.19 227.386C257.064 232.004 256.67 233.508 255.9 234.976C254.942 236.954 253.364 238.564 251.406 239.56C248.792 240.76 246.358 240.204 241.864 239.148C238.76 238.426 235.754 237.332 232.912 235.89C228.758 233.724 228.902 232.792 224.568 230.268C221.318 228.122 217.662 226.666 213.826 225.99C210.084 225.178 206.176 225.684 202.762 227.422C200.98 228.434 199.45 229.836 198.286 231.522C196.496 234.332 196.657 236.516 196.03 239.542C195.815 240.598 193.792 249.802 186.828 253.472C183.839 254.9 180.496 255.424 177.214 254.976C175.423 254.832 173.364 254.42 166.847 251.664C161.476 249.372 157.394 247.33 156.553 246.918C147.315 242.282 145.184 240.402 141.514 241.01C139.387 241.662 137.401 242.706 135.659 244.09C127.334 249.462 126.385 251.986 120.352 255.37C116.144 257.732 112.259 259.916 108.267 258.682C107.425 258.412 106.387 257.93 101.374 252.648C96.0026 247.026 96.0028 246.31 93.156 243.696C90.0756 240.882 86.6458 238.474 82.951 236.534C79.3044 234.45 75.3346 232.992 71.2062 232.22C66.2632 231.352 61.1872 231.62 56.364 233.008C52.617 234.042 49.1244 235.84 46.1052 238.29L45.192 239.094C43.4018 240.742 42.99 241.638 41.6114 241.924C38.9078 242.478 36.6162 239.13 29.6518 231.378C23.4168 224.336 18.5584 216.186 15.3288 207.352C13.1739 201.698 11.5088 195.87 10.3516 189.931C9.49226 185.617 9.52806 184.56 7.86302 175.734C6.8425 170.363 6.07264 166.424 5.49972 164.168C4.4613 159.459 3.70936 156.183 3.49452 155.485C0.432989 142.666 6.35908 120.931 7.27216 117.672C10.1483 106.45 14.635 95.7036 20.5924 85.768C27.4134 74.8738 35.867 65.0918 45.6576 56.764C97.8826 11.3245 162.568 4.50326 162.568 4.50326C179.38 2.7129 207.9 0.0452461 240.556 12.1839C252.678 16.6956 272.784 24.3942 289.362 43.4258C298.314 53.7024 303.954 64.5522 309.056 74.3812C314.4 84.797 318.728 95.7028 321.982 106.948C322.734 108.685 329 128.432 324.596 138.494Z" stroke="#161616" stroke-width="2" stroke-miterlimit="10" stroke-linecap="round"/>
<path d="M321.588 152.692C320.766 175.179 311.544 191.328 305.1 202.626C293.444 223.036 279.658 235.406 270.366 243.624C259.164 253.892 246.574 262.534 232.966 269.298C221.226 274.99 208.85 279.27 196.102 282.046C168.459 288.168 146.419 285.824 130.109 283.962C118.06 282.582 106.835 281.204 92.7264 275.654C83.1438 271.74 74.0622 266.698 65.674 260.632C59.515 256.192 54.7706 252.738 50.044 246.578C48.2308 244.216 46.6082 241.714 45.1922 239.094L46.1052 238.29C49.1246 235.84 52.617 234.042 56.364 233.008C61.1872 231.62 66.2632 231.352 71.2062 232.22C75.3346 232.992 79.3046 234.45 82.951 236.534C86.6458 238.474 90.0756 240.882 93.156 243.696C95.9848 246.31 96.0206 247.026 101.374 252.648C106.387 258.018 107.425 258.412 108.267 258.682C112.259 259.916 116.144 257.732 120.352 255.37C126.385 251.986 127.334 249.478 135.659 244.09C137.401 242.706 139.387 241.662 141.514 241.01C145.184 240.402 147.315 242.282 156.553 246.918C157.394 247.33 161.458 249.372 166.847 251.664C173.364 254.42 175.387 254.832 177.214 254.976C180.497 255.424 183.839 254.9 186.828 253.472C193.793 249.802 195.78 240.598 196.03 239.542C196.657 236.516 196.424 234.332 198.286 231.522C199.451 229.836 200.98 228.434 202.762 227.422C206.176 225.684 210.084 225.178 213.826 225.99C217.662 226.666 221.318 228.122 224.568 230.268C228.902 232.792 228.758 233.724 232.912 235.89C235.754 237.332 238.76 238.426 241.864 239.148C246.358 240.204 248.792 240.76 251.406 239.56C253.364 238.564 254.942 236.954 255.9 234.976C256.67 233.508 257.064 232.004 257.19 227.386C257.424 223.204 257.286 219.01 256.778 214.854C256.044 209.482 255.328 208.928 255.722 206.206C256.314 202.822 257.92 199.696 260.328 197.244C262.734 194.792 265.83 193.129 269.202 192.474C272.068 192.133 272.408 193.154 277.296 193.297C279.866 193.529 282.458 193.317 284.958 192.671C287.514 191.905 289.828 190.487 291.67 188.557C293.512 186.626 294.822 184.249 295.468 181.66C295.932 179.368 294.804 179.386 293.964 172.046C293.608 169.994 293.542 167.903 293.766 165.833C294.454 162.874 295.884 160.138 297.92 157.884C299.79 155.466 301.976 153.311 304.42 151.474C306.798 149.624 309.434 148.128 312.244 147.034C316.378 145.477 317.614 146.103 319.996 144.51C320.646 144.089 321.246 143.597 321.786 143.042C321.84 146.587 321.696 149.917 321.588 152.692Z" stroke="#161616" stroke-width="2" stroke-miterlimit="10" stroke-linecap="round"/>
<path d="M105.51 156.72C104.521 153.122 104.039 149.404 104.077 145.674C104.163 141.144 105.004 136.66 106.566 132.407C108.353 127.639 110.972 123.226 114.3 119.373C119.614 113.111 126.175 108.026 133.565 104.441C139.867 101.129 146.588 98.684 153.545 97.1726C162.036 95.2764 170.744 94.5296 179.434 94.9524C190.176 95.1852 195.207 96.7428 196.532 97.1368C201.01 98.56 205.238 100.674 209.064 103.403C212.788 106.035 214.74 107.431 215.958 109.92C219.252 116.688 213.772 125.12 212.842 126.499C206.824 124.752 200.596 123.842 194.33 123.795C189.005 123.822 183.699 124.422 178.503 125.586C168.137 127.268 158.135 130.707 148.926 135.755C136.991 142.835 127.154 152.963 120.423 165.099C116.701 164.763 113.132 163.454 110.075 161.303C108.326 160.02 106.786 158.474 105.51 156.72Z" stroke="#161616" stroke-width="2" stroke-miterlimit="10" stroke-linecap="round"/>
<path d="M94.0692 123.276C92.9792 127.138 92.6388 131.174 93.0664 135.164C93.916 141.885 96.8168 148.18 101.374 153.193C109.108 162.145 119.098 164.58 125.651 166.191C135.221 168.38 145.149 168.484 154.762 166.495C167.927 164.317 180.413 159.134 191.25 151.349C199.072 145.822 205.728 138.807 210.836 130.706C213.656 126.423 215.648 121.65 216.71 116.634C217.598 112.223 217.634 107.684 216.816 103.26C215.96 98.4956 213.94 94.017 210.934 90.222C207.93 86.427 204.034 83.4332 199.593 81.5068C197.486 80.5298 195.276 79.7912 193.005 79.3046" stroke="#161616" stroke-width="2" stroke-miterlimit="10" stroke-linecap="round"/>
<path d="M111.134 49.0482L101.69 56.6742C100.813 57.3824 100.676 58.6674 101.385 59.5444L101.519 59.7116C102.228 60.5886 103.513 60.7254 104.39 60.0172L113.834 52.3914C114.711 51.6832 114.848 50.3982 114.14 49.5212L114.005 49.354C113.296 48.477 112.012 48.34 111.134 49.0482Z" fill="white"/>
<path d="M39.5864 124.299L30.1422 131.925C29.2652 132.633 29.1282 133.918 29.8364 134.795L29.9714 134.962C30.6796 135.839 31.9646 135.976 32.8416 135.268L42.2858 127.642C43.1628 126.934 43.2996 125.649 42.5916 124.772L42.4566 124.605C41.7484 123.728 40.4634 123.591 39.5864 124.299Z" fill="white"/>
<path d="M100.986 173.28L91.5424 180.906C90.6654 181.614 90.5284 182.899 91.2366 183.776L91.3716 183.943C92.0798 184.82 93.3648 184.957 94.2418 184.249L103.686 176.623C104.563 175.915 104.7 174.63 103.992 173.753L103.857 173.586C103.149 172.709 101.863 172.572 100.986 173.28Z" fill="white"/>
<path d="M180.558 25.568L177.893 37.4106C177.646 38.5102 178.337 39.6024 179.436 39.8498L179.646 39.897C180.746 40.1444 181.838 39.4534 182.085 38.3538L184.75 26.5112C184.997 25.4114 184.306 24.3192 183.206 24.0718L182.997 24.0248C181.897 23.7772 180.805 24.4682 180.558 25.568Z" fill="white"/>
<path d="M79.2528 97.9692L67.3132 95.78C66.2046 95.5766 65.1408 96.3106 64.9376 97.4194L64.8988 97.6308C64.6956 98.7394 65.4296 99.8032 66.5384 100.006L78.4778 102.196C79.5866 102.399 80.6502 101.665 80.8536 100.556L80.8924 100.345C81.0956 99.236 80.3616 98.1724 79.2528 97.9692Z" fill="white"/>
<path d="M180.629 194.539L168.69 192.35C167.581 192.146 166.517 192.881 166.314 193.989L166.275 194.201C166.072 195.309 166.806 196.373 167.915 196.576L179.854 198.765C180.963 198.969 182.027 198.235 182.23 197.126L182.269 196.915C182.472 195.806 181.738 194.742 180.629 194.539Z" fill="white"/>
<path d="M53.8942 185.941L45.6902 176.995C44.9284 176.164 43.6372 176.108 42.8064 176.87L42.6482 177.015C41.8174 177.777 41.7614 179.068 42.5232 179.899L50.7272 188.845C51.489 189.676 52.78 189.732 53.6108 188.97L53.7692 188.825C54.6 188.063 54.656 186.772 53.8942 185.941Z" fill="white"/>
<path d="M246.088 148.901L237.884 139.954C237.122 139.124 235.832 139.068 235 139.83L234.842 139.975C234.012 140.737 233.956 142.028 234.718 142.858L242.92 151.805C243.682 152.636 244.974 152.692 245.804 151.93L245.964 151.785C246.794 151.023 246.85 149.732 246.088 148.901Z" fill="white"/>
<path d="M241.47 69.1712L229.532 66.9822C228.422 66.7788 227.358 67.5128 227.156 68.6216L227.116 68.833C226.914 69.9416 227.648 71.0052 228.756 71.2086L240.696 73.3978C241.804 73.601 242.868 72.867 243.072 71.7582L243.11 71.547C243.314 70.4382 242.58 69.3746 241.47 69.1712Z" fill="white"/>
<path d="M288.076 107.016L276.136 104.827C275.026 104.623 273.964 105.357 273.76 106.466L273.722 106.677C273.518 107.786 274.252 108.85 275.36 109.053L287.3 111.242C288.408 111.445 289.472 110.711 289.676 109.603L289.714 109.391C289.918 108.283 289.184 107.219 288.076 107.016Z" fill="white"/>
<path opacity="0.5" d="M24.9788 111.388C38.512 83.0578 61.2262 60.1352 89.432 46.3442" stroke="white" stroke-width="4" stroke-miterlimit="10" stroke-linecap="round"/>
<path opacity="0.5" d="M110.057 35.8168C112.315 34.3112 114.713 33.028 117.219 31.9854C119.804 30.911 122.491 30.1012 125.239 29.5684" stroke="white" stroke-width="4" stroke-miterlimit="10" stroke-linecap="round"/>
</svg>
