<svg width="390" height="93" viewBox="0 0 390 93" fill="none" xmlns="http://www.w3.org/2000/svg">
<path d="M18.6898 -3.46052C30.0019 25.9779 62.2466 44.0693 80.4665 54.2925C109.948 70.6455 145.296 82.8441 183.872 89.9754C223.751 89.9754 255.485 84.9976 276.871 81.5007C321.917 74.7353 363.988 62.3364 400.246 45.1398C422.176 34.5776 452.854 19.8048 472.431 -6.79728C478.464 -14.7894 493.245 -35.7175 488.569 -62.1056C488.298 -63.5326 487.876 -64.9068 487.876 -64.9068C487.256 -66.8999 486.348 -68.858 485.161 -70.7584C484.527 -71.8287 483.803 -73.2209 481.179 -82.2843C478.977 -89.9027 477.468 -95.7543 477.378 -96.1828C475.267 -104.497 467.152 -124.122 441.904 -139.466C436.693 -142.629 430.976 -145.485 424.831 -147.994C422.411 -146.657 419.841 -145.417 417.139 -144.283C408.798 -140.694 398.967 -138.511 388.693 -137.967C365.466 -136.915 346.915 -145.443 341.907 -147.727C323.808 -155.986 321.787 -164.712 308.544 -164.766C302.15 -164.766 297.143 -163.124 288.094 -160.054C268.063 -153.294 267.249 -148.066 256.57 -147.068C249.241 -146.37 247.974 -148.69 224.144 -155.024C195.245 -162.713 187.945 -161.715 184.326 -160.804C177.78 -159.199 174.161 -155.899 170.028 -152.134C160.495 -143.48 164.417 -138.735 156.696 -134.862C147.645 -130.404 133.617 -132.223 129.967 -132.686C115.309 -134.577 114.251 -139.697 96.9679 -143.534C84.8673 -134.388 73.963 -124.707 64.3593 -114.577C64.5413 -112.907 64.1066 -111.232 63.0923 -109.672C61.0334 -106.503 57.5357 -103.731 52.9866 -101.66C46.6381 -93.8849 41.0377 -85.9027 36.2156 -77.7521C21.3452 -52.6316 8.31454 -30.5974 18.6898 -3.46052ZM136.333 -33.1126C143.241 -42.765 157.269 -52.6136 181.792 -61.41C218.533 -74.5771 260.944 -77.199 292.255 -71.2408C301.441 -69.5696 310.015 -66.8949 317.533 -63.3542C319.89 -62.2301 322.089 -60.9954 324.109 -59.6611C344.532 -46.2618 348.664 -19.9813 294.698 1.46373C238.2 23.9083 152.14 20.2866 137.057 0.28624C133.041 -5.02267 130.884 -10.7585 130.722 -16.5742C130.645 -22.2624 132.589 -27.8968 136.424 -33.1126H136.333Z" fill="#FF46B5" stroke="#FF46B5" stroke-width="2" stroke-miterlimit="10"/>
<path d="M130.722 -16.5742C136.174 -12.9449 142.584 -9.8606 149.697 -7.43903C166.8 -1.6229 182.878 -1.51567 199.137 -1.40865C217.104 -1.29624 234.959 -3.10972 251.834 -6.76139C266.917 -10.044 286.736 -14.3619 302.331 -25.9406C311.38 -32.1479 317.242 -39.7564 319.223 -47.8682C320.349 -53.0401 319.776 -58.2928 317.535 -63.3363C319.89 -62.2122 322.091 -60.9775 324.109 -59.6431C344.532 -46.2448 348.664 -19.9634 294.698 1.48179C238.2 23.9264 152.14 20.3044 137.057 0.304089C133.034 -5.01019 130.881 -10.7525 130.722 -16.5742Z" fill="#F817AA" stroke="#F817AA" stroke-width="2" stroke-miterlimit="10"/>
<path d="M-45.8937 -50.0984C-38.8948 -53.5414 -31.3534 -51.7576 -17.9589 -57.948C-12.2607 -60.5889 -2.42458 -65.0852 -0.0118866 -72.2213C2.61311 -79.8756 -6.04364 -82.8015 -1.97304 -89.4025C-0.463425 -91.6048 1.8145 -93.5939 4.70908 -95.2411C7.60365 -96.8884 11.0509 -98.1579 14.8283 -98.9661C27.2557 -101.642 33.3212 -96.5755 45.415 -99.1445C48.1478 -99.7265 50.7054 -100.564 52.9867 -101.624C46.6382 -93.849 41.0378 -85.8668 36.2158 -77.7172C21.3453 -52.5957 8.31467 -30.5615 18.69 -3.42473C30.002 26.0137 62.2467 44.1051 80.4666 54.3282C109.948 70.6815 145.296 82.8799 183.872 90.0111C169.844 89.9886 155.84 89.3445 141.974 88.0843C112.684 85.408 62.1287 80.787 18.7203 56.8439C-7.16235 42.5706 -18.8956 27.7801 -29.5439 14.1849C-32.4688 10.5631 -70.3273 -37.9836 -45.8937 -50.0984Z" fill="#F817AA" stroke="#F817AA" stroke-width="2" stroke-miterlimit="10"/>
<path d="M-51.8951 -45.0131C-50.7966 -46.6823 -49.1926 -48.218 -47.1607 -49.5453C-46.2508 -50.0984 -45.2399 -50.5887 -44.1448 -51.0082C-40.1315 -52.5957 -38.1096 -51.9719 -31.0804 -53.5235C-26.3494 -54.6137 -21.9082 -56.1045 -17.9016 -57.9481C-13.7838 -59.7787 -10.1007 -61.9262 -6.95007 -64.3358C-3.51971 -66.582 -1.11034 -69.3085 0.0488318 -72.2572C0.426238 -74.32 0.315041 -76.4038 -0.284765 -78.4486C-1.70004 -85.7631 -3.60054 -85.7452 -2.81877 -88.0292C-1.73036 -90.6093 0.476746 -92.978 3.58024 -94.9023C6.68373 -96.8256 10.5825 -98.2387 14.8889 -99.002C19.1011 -99.6458 23.4682 -99.857 27.7983 -99.6258C36.0338 -99.4833 36.6067 -98.4669 41.4354 -98.8057C47.1167 -99.4584 52.333 -101.117 56.3868 -103.559C60.4439 -106.003 63.1498 -109.118 64.1472 -112.49C64.811 -115.203 63.6046 -115.683 62.368 -121.108C61.5121 -125.25 61.2796 -129.429 61.6738 -133.596C61.8861 -138.198 62.55 -139.697 63.8473 -141.16C65.4614 -143.131 68.1201 -144.736 71.419 -145.728C75.8232 -146.924 79.9241 -146.37 87.4958 -145.318C92.7256 -144.598 97.7902 -143.508 102.579 -142.071C109.577 -139.912 109.335 -138.984 116.637 -136.468C122.113 -134.33 128.273 -132.879 134.736 -132.205C141.04 -131.396 147.625 -131.9 153.377 -133.632C156.379 -134.641 158.957 -136.038 160.918 -137.718C163.934 -140.518 163.663 -142.695 164.719 -145.71C165.081 -146.763 168.49 -155.935 180.223 -159.592C185.259 -161.015 190.892 -161.537 196.421 -161.091C199.439 -160.947 202.908 -160.537 213.888 -157.79C222.937 -155.506 229.815 -153.471 231.232 -153.061C246.797 -148.441 250.387 -146.567 256.57 -147.173C260.154 -147.823 263.5 -148.863 266.435 -150.242C280.462 -155.596 282.06 -158.111 292.225 -161.483C299.315 -163.837 305.861 -166.014 312.587 -164.784C314.005 -164.515 315.754 -164.034 324.2 -158.771C333.25 -153.168 333.25 -152.455 338.046 -149.85C343.236 -147.046 349.015 -144.646 355.24 -142.713C361.384 -140.636 368.073 -139.183 375.028 -138.414C383.357 -137.549 391.909 -137.816 400.035 -139.199C406.348 -140.229 412.233 -142.021 417.32 -144.463L418.858 -145.264C421.875 -146.906 422.568 -147.799 424.891 -148.084C429.446 -148.636 433.307 -145.3 445.041 -137.575C455.546 -130.557 463.732 -122.435 469.173 -113.632C472.804 -107.998 475.609 -102.19 477.559 -96.2715C479.007 -91.9725 478.947 -90.9192 481.752 -82.1238C483.471 -76.7715 484.769 -72.8461 485.734 -70.598C487.483 -65.9053 488.75 -62.6407 489.112 -61.9451C494.27 -49.1706 484.286 -27.5111 482.748 -24.2634C477.902 -13.0804 470.342 -2.3712 460.305 7.5299C448.813 18.3863 434.57 28.1343 418.074 36.4332C330.083 81.7148 221.098 88.5124 221.098 88.5124C192.772 90.2966 144.72 92.955 89.6996 80.8584C69.2759 76.3624 35.4003 68.6906 7.46889 49.7251C-7.61387 39.4842 -17.1164 28.672 -25.7125 18.8772C-34.7163 8.49752 -42.0084 -2.3704 -47.4909 -13.5767C-48.7579 -15.3076 -59.3151 -34.9861 -51.8951 -45.0131Z" stroke="#161616" stroke-width="2" stroke-miterlimit="10" stroke-linecap="round"/>
</svg>
