<svg width="44" height="44" viewBox="0 0 44 44" fill="none" xmlns="http://www.w3.org/2000/svg">
<g filter="url(#filter0_d_12_424)">
<path d="M22.0263 35.0533C31.706 35.0533 39.553 27.2063 39.553 17.5266C39.553 7.84694 31.706 0 22.0263 0C12.3467 0 4.49969 7.84694 4.49969 17.5266C4.49969 27.2063 12.3467 35.0533 22.0263 35.0533Z" fill="#E0E0E0"/>
</g>
<path d="M22.0263 34.5205C31.5589 34.5205 39.2866 26.7928 39.2866 17.2603C39.2866 7.72768 31.5589 0 22.0263 0C12.4938 0 4.76605 7.72768 4.76605 17.2603C4.76605 26.7928 12.4938 34.5205 22.0263 34.5205Z" fill="white"/>
<mask id="mask0_12_424" style="mask-type:luminance" maskUnits="userSpaceOnUse" x="10" y="5" width="24" height="25">
<path d="M33.2135 15.2359H22.2927V19.764H28.5788C27.9928 22.6408 25.5423 24.2922 22.2927 24.2922C18.4571 24.2922 15.3673 21.2024 15.3673 17.3668C15.3673 13.5312 18.4571 10.4414 22.2927 10.4414C23.9441 10.4414 25.4357 11.0274 26.6077 11.9863L30.0172 8.57683C27.9396 6.76557 25.2759 5.64685 22.2927 5.64685C15.7935 5.64685 10.5728 10.8675 10.5728 17.3668C10.5728 23.866 15.7935 29.0867 22.2927 29.0867C28.1527 29.0867 33.4799 24.8249 33.4799 17.3668C33.4799 16.6742 33.3734 15.9284 33.2135 15.2359Z" fill="white"/>
</mask>
<g mask="url(#mask0_12_424)">
<path d="M9.50731 24.2922V10.4414L18.5636 17.3668L9.50731 24.2922Z" fill="#FBBC05"/>
</g>
<mask id="mask1_12_424" style="mask-type:luminance" maskUnits="userSpaceOnUse" x="10" y="5" width="24" height="25">
<path d="M33.2135 15.2359H22.2927V19.764H28.5788C27.9928 22.6408 25.5423 24.2922 22.2927 24.2922C18.4571 24.2922 15.3673 21.2024 15.3673 17.3668C15.3673 13.5312 18.4571 10.4414 22.2927 10.4414C23.9441 10.4414 25.4357 11.0274 26.6077 11.9863L30.0172 8.57683C27.9396 6.76557 25.2759 5.64685 22.2927 5.64685C15.7935 5.64685 10.5728 10.8675 10.5728 17.3668C10.5728 23.866 15.7935 29.0867 22.2927 29.0867C28.1527 29.0867 33.4799 24.8249 33.4799 17.3668C33.4799 16.6742 33.3734 15.9284 33.2135 15.2359Z" fill="white"/>
</mask>
<g mask="url(#mask1_12_424)">
<path d="M9.50731 10.4414L18.5636 17.3668L22.2927 14.1172L35.0781 12.0396V4.58142H9.50731V10.4414Z" fill="#EA4335"/>
</g>
<mask id="mask2_12_424" style="mask-type:luminance" maskUnits="userSpaceOnUse" x="10" y="5" width="24" height="25">
<path d="M33.2135 15.2359H22.2927V19.764H28.5788C27.9928 22.6408 25.5423 24.2922 22.2927 24.2922C18.4571 24.2922 15.3673 21.2024 15.3673 17.3668C15.3673 13.5312 18.4571 10.4414 22.2927 10.4414C23.9441 10.4414 25.4357 11.0274 26.6077 11.9863L30.0172 8.57683C27.9396 6.76557 25.2759 5.64685 22.2927 5.64685C15.7935 5.64685 10.5728 10.8675 10.5728 17.3668C10.5728 23.866 15.7935 29.0867 22.2927 29.0867C28.1527 29.0867 33.4799 24.8249 33.4799 17.3668C33.4799 16.6742 33.3734 15.9284 33.2135 15.2359Z" fill="white"/>
</mask>
<g mask="url(#mask2_12_424)">
<path d="M9.50731 24.2922L25.489 12.0396L29.6976 12.5723L35.0781 4.58142V30.1522H9.50731V24.2922Z" fill="#34A853"/>
</g>
<mask id="mask3_12_424" style="mask-type:luminance" maskUnits="userSpaceOnUse" x="10" y="5" width="24" height="25">
<path d="M33.2135 15.2359H22.2927V19.764H28.5788C27.9928 22.6408 25.5423 24.2922 22.2927 24.2922C18.4571 24.2922 15.3673 21.2024 15.3673 17.3668C15.3673 13.5312 18.4571 10.4414 22.2927 10.4414C23.9441 10.4414 25.4357 11.0274 26.6077 11.9863L30.0172 8.57683C27.9396 6.76557 25.2759 5.64685 22.2927 5.64685C15.7935 5.64685 10.5728 10.8675 10.5728 17.3668C10.5728 23.866 15.7935 29.0867 22.2927 29.0867C28.1527 29.0867 33.4799 24.8249 33.4799 17.3668C33.4799 16.6742 33.3734 15.9284 33.2135 15.2359Z" fill="white"/>
</mask>
<g mask="url(#mask3_12_424)">
<path d="M35.0781 30.1522L18.5636 17.3668L16.4327 15.7686L35.0781 10.4414V30.1522Z" fill="#4285F4"/>
</g>
<defs>
<filter id="filter0_d_12_424" x="0.499695" y="0" width="43.0533" height="43.0532" filterUnits="userSpaceOnUse" color-interpolation-filters="sRGB">
<feFlood flood-opacity="0" result="BackgroundImageFix"/>
<feColorMatrix in="SourceAlpha" type="matrix" values="0 0 0 0 0 0 0 0 0 0 0 0 0 0 0 0 0 0 127 0" result="hardAlpha"/>
<feOffset dy="4"/>
<feGaussianBlur stdDeviation="2"/>
<feComposite in2="hardAlpha" operator="out"/>
<feColorMatrix type="matrix" values="0 0 0 0 0 0 0 0 0 0 0 0 0 0 0 0 0 0 0.25 0"/>
<feBlend mode="normal" in2="BackgroundImageFix" result="effect1_dropShadow_12_424"/>
<feBlend mode="normal" in="SourceGraphic" in2="effect1_dropShadow_12_424" result="shape"/>
</filter>
</defs>
</svg>
