<svg width="14" height="18" viewBox="0 0 14 18" fill="none" xmlns="http://www.w3.org/2000/svg">
<path d="M11.375 6.375V4.625C11.375 2.175 9.45 0.25 7 0.25C4.55 0.25 2.625 2.175 2.625 4.625V6.375C1.1375 6.375 0 7.5125 0 9V15.125C0 16.6125 1.1375 17.75 2.625 17.75H11.375C12.8625 17.75 14 16.6125 14 15.125V9C14 7.5125 12.8625 6.375 11.375 6.375ZM4.375 4.625C4.375 3.1375 5.5125 2 7 2C8.4875 2 9.625 3.1375 9.625 4.625V6.375H4.375V4.625ZM7.875 13.375C7.875 13.9 7.525 14.25 7 14.25C6.475 14.25 6.125 13.9 6.125 13.375V10.75C6.125 10.225 6.475 9.875 7 9.875C7.525 9.875 7.875 10.225 7.875 10.75V13.375Z" fill="#9A9A9A"/>
</svg>
