<svg width="390" height="149" viewBox="0 0 390 149" fill="none" xmlns="http://www.w3.org/2000/svg">
<path d="M-144.859 -10.6804C-126.385 39.2726 -107.755 93.1527 -78.0001 110.5C-29.8541 138.249 61.9008 135.767 124.9 147.868C190.025 147.868 241.85 139.421 276.775 133.487C350.339 122.007 419.045 100.968 478.258 71.7877C514.072 53.865 564.172 28.7977 596.143 -16.3424C605.995 -29.904 630.134 -65.4161 622.498 -110.193C622.055 -112.615 621.365 -114.946 621.365 -114.946C620.353 -118.328 618.87 -121.651 616.931 -124.876C615.897 -126.692 614.714 -129.054 610.429 -144.434C606.833 -157.361 604.369 -167.29 604.222 -168.018C600.773 -182.125 587.522 -215.426 546.289 -241.463C537.78 -246.83 528.442 -251.677 518.407 -255.935C514.455 -253.665 510.259 -251.562 505.845 -249.637C492.224 -243.547 476.168 -239.843 459.391 -238.92C421.459 -237.134 391.163 -251.606 382.985 -255.481C353.427 -269.496 350.128 -284.302 328.501 -284.394C318.059 -284.394 309.881 -281.607 295.103 -276.399C262.39 -264.927 261.061 -256.056 243.622 -254.362C231.653 -253.178 229.584 -257.115 190.666 -267.863C143.472 -280.91 131.55 -279.216 125.64 -277.67C114.95 -274.948 109.04 -269.347 102.29 -262.959C86.7223 -248.275 93.1277 -240.222 80.5176 -233.651C65.7365 -226.086 42.8273 -229.173 36.8675 -229.958C12.9293 -233.167 11.2013 -241.856 -17.0237 -248.366C-36.7852 -232.846 -54.5928 -216.42 -70.2765 -199.23C-69.9793 -196.395 -70.6892 -193.555 -72.3456 -190.907C-75.708 -185.529 -81.4202 -180.825 -88.8493 -177.311C-99.217 -164.118 -108.363 -150.574 -116.238 -136.743C-140.523 -94.117 -161.803 -56.7279 -144.859 -10.6804ZM47.2628 -60.996C58.5439 -77.3747 81.4531 -94.0866 121.501 -109.013C181.504 -131.356 250.765 -135.805 301.899 -125.694C316.9 -122.858 330.903 -118.32 343.18 -112.312C347.029 -110.404 350.62 -108.309 353.919 -106.045C387.271 -83.3083 394.02 -38.714 305.889 -2.32462C213.622 35.7608 73.0775 29.6152 48.4459 -4.32266C41.8862 -13.3311 38.3644 -23.064 38.1002 -32.9326C37.9736 -42.5846 41.1489 -52.1454 47.4113 -60.996H47.2628Z" fill="#FF46B5" stroke="#FF46B5" stroke-width="2" stroke-miterlimit="10"/>
</svg>
